<?xml version="1.0" encoding="iso-8859-1"?>
<!-- Generator: Adobe Illustrator 19.0.0, SVG Export Plug-In . SVG Version: 6.00 Build 0)  -->
<svg version="1.1" id="Layer_1" xmlns="http://www.w3.org/2000/svg" xmlns:xlink="http://www.w3.org/1999/xlink" x="0px" y="0px"
	 viewBox="0 0 512 512" style="enable-background:new 0 0 512 512;" xml:space="preserve">
<g>
	<path style="fill:#8AD5DD;" d="M448,0H64v512h384V0z M234.544,74.344h42.48l93.072,272.736h-37.648l-29.128-85.784h-96.704
		l-28.328,85.784h-36.416L234.544,74.344z M382.608,426.832h-253.2v-24h253.2V426.832z"/>
	<path style="fill:#8AD5DD;" d="M269.328,155.272c-6.064-17.808-10.12-33.992-14.152-49.768h-0.824
		c-4.032,16.184-8.488,32.76-13.752,49.368l-26.696,78.896h82.128L269.328,155.272z"/>
</g>
<path style="fill:#2D2D2D;" d="M206.616,261.296h96.704l29.128,85.784h37.648L277.024,74.344h-42.48l-92.68,272.736h36.416
	L206.616,261.296z M240.6,154.872c5.264-16.608,9.72-33.184,13.752-49.368h0.824c4.032,15.776,8.088,31.96,14.152,49.768
	l26.696,78.496h-82.12L240.6,154.872z"/>
<rect x="129.44" y="402.848" style="fill:#FFFFFF;" width="253.2" height="24"/>
<g>
</g>
<g>
</g>
<g>
</g>
<g>
</g>
<g>
</g>
<g>
</g>
<g>
</g>
<g>
</g>
<g>
</g>
<g>
</g>
<g>
</g>
<g>
</g>
<g>
</g>
<g>
</g>
<g>
</g>
</svg>
