<?xml version="1.0" encoding="utf-8"?>
<!-- Generator: Adobe Illustrator 16.0.4, SVG Export Plug-In . SVG Version: 6.00 Build 0)  -->
<!DOCTYPE svg PUBLIC "-//W3C//DTD SVG 1.1//EN" "http://www.w3.org/Graphics/SVG/1.1/DTD/svg11.dtd">
<svg version="1.1" id="gr_x5F_icon11_x5F_typogrify"
	 xmlns="http://www.w3.org/2000/svg" xmlns:xlink="http://www.w3.org/1999/xlink" x="0px" y="0px" width="455px" height="500px"
	 viewBox="0 0 455 500" enable-background="new 0 0 455 500" xml:space="preserve">
<path id="gr_70_" fill="#F3BA48" d="M451.96,345.021c0,19.005-13.457,42.328-29.924,51.83l-164.573,95.021
	c-16.467,9.503-43.395,9.503-59.848,0L33.028,396.852c-16.453-9.502-29.924-32.825-29.924-51.83V154.979
	c0-19.004,13.471-42.328,29.924-51.83L197.615,8.126c16.453-9.502,43.381-9.502,59.848,0l164.573,95.022
	c16.467,9.502,29.924,32.826,29.924,51.83V345.021z"/>
<path fill="#FFFFFF" d="M186.291,172.822c-0.661-1.323-1.552-2.429-3.766-2.429h-2.214c-1.984,0-3.091,1.106-3.752,2.429
	l-68.77,148.823c-1.322,2.875,0.445,5.75,3.752,5.75h19.248c3.536,0,5.52-2.214,6.411-4.428l10.838-23.877h66.11l10.838,23.877
	c1.539,3.091,3.092,4.428,6.412,4.428h19.233c3.32,0,5.089-2.875,3.766-5.75L186.291,172.822z M158.864,274.538l21.677-48.645h0.661
	l22.109,48.645H158.864z M313.666,236.732c-14.146,0-28.304,3.537-30.072,4.198c-1.984,0.662-3.753,2.214-3.091,5.534l1.984,11.5
	c0.445,2.874,1.997,4.858,5.088,3.968c5.089-1.539,16.588-3.307,24.768-3.307s11.716,3.981,11.5,15.252c0,0-7.302-2.43-16.143-2.43
	c-22.555,0-35.391,12.161-35.391,27.858c0,18.802,12.175,30.302,29.856,30.302c13.714,0,21.893-6.641,26.981-11.283l2.646,5.966
	c1.106,2.442,2.214,3.104,3.766,3.104h7.964c2.213,0,4.197-1.998,4.197-4.212v-47.983
	C347.72,251.107,341.309,236.732,313.666,236.732z M323.397,302.181c-1.322,2.659-8.18,8.625-15.252,8.625
	c-6.856,0-11.5-4.858-11.5-11.5c0-7.072,5.75-11.944,14.361-11.944c6.425,0,12.391,2.658,12.391,2.658V302.181z"/>
</svg>
