<?xml version="1.0" encoding="utf-8"?>
<!-- Generator: Adobe Illustrator 16.0.4, SVG Export Plug-In . SVG Version: 6.00 Build 0)  -->
<!DOCTYPE svg PUBLIC "-//W3C//DTD SVG 1.1//EN" "http://www.w3.org/Graphics/SVG/1.1/DTD/svg11.dtd">
<svg version="1.1" id="gr_x5F_icon11_x5F_typogrify"
	 xmlns="http://www.w3.org/2000/svg" xmlns:xlink="http://www.w3.org/1999/xlink" x="0px" y="0px" width="250px" height="250px"
	 viewBox="0 0 250 250" enable-background="new 0 0 250 250" xml:space="preserve">
<g id="gr_x5F_big_11_">
	<path id="gr_85_" fill="#F3BA48" d="M237.667,172.701c0,9.541-6.758,21.25-15.02,26.021l-82.628,47.7
		c-8.262,4.771-21.777,4.771-30.039,0l-82.628-47.7c-8.262-4.771-15.02-16.479-15.02-26.021V77.299
		c0-9.541,6.758-21.25,15.02-26.021l82.628-47.7c8.262-4.771,21.777-4.771,30.039,0l82.628,47.7
		c8.262,4.771,15.02,16.48,15.02,26.021V172.701z"/>
	<g>
		<path fill="#FFFFFF" d="M62.724,162.256l35.763-77.393c0.342-0.688,0.918-1.26,1.953-1.26h1.162c1.143,0,1.611,0.571,1.953,1.26
			l35.41,77.393c0.693,1.494-0.234,2.993-1.953,2.993h-10c-1.729,0-2.539-0.698-3.34-2.305l-5.635-12.412H83.652l-5.635,12.412
			c-0.459,1.152-1.494,2.305-3.33,2.305h-10C62.958,165.249,62.04,163.75,62.724,162.256z M112.402,137.764l-11.494-25.303h-0.352
			l-11.27,25.303H112.402z"/>
		<path fill="#FFFFFF" d="M166.689,136.152c4.6,0,8.398,1.265,8.398,1.265c0.107-5.859-1.738-7.93-5.986-7.93
			c-4.258,0-10.234,0.918-12.881,1.719c-1.602,0.464-2.412-0.571-2.646-2.065l-1.035-5.977c-0.342-1.729,0.576-2.534,1.611-2.881
			c0.918-0.342,8.281-2.188,15.635-2.188c14.375,0,17.715,7.48,17.715,20.01v24.951c0,1.152-1.035,2.192-2.188,2.192h-4.141
			c-0.801,0-1.377-0.342-1.953-1.616l-1.377-3.105c-2.646,2.417-6.904,5.869-14.033,5.869c-9.189,0-15.527-5.977-15.527-15.757
			C148.281,142.476,154.961,136.152,166.689,136.152z M166.914,156.621c3.682,0,7.246-3.105,7.93-4.482v-6.328
			c0,0-3.096-1.382-6.436-1.382c-4.482,0-7.471,2.534-7.471,6.211C160.938,154.097,163.35,156.621,166.914,156.621z"/>
	</g>
</g>
</svg>
